<svg xmlns="http://www.w3.org/2000/svg" xmlns:xlink="http://www.w3.org/1999/xlink" width="500" zoomAndPan="magnify" viewBox="0 0 375 374.999991" height="500" preserveAspectRatio="xMidYMid meet" version="1.0"><defs><g/><clipPath id="d2488ddf4e"><path d="M 87.125 74.835938 L 288.125 74.835938 L 288.125 300.144531 L 87.125 300.144531 Z M 87.125 74.835938 " clip-rule="nonzero"/></clipPath></defs><g clip-path="url(#d2488ddf4e)"><path fill="#1e3050" d="M 194.121094 88.777344 C 190.617188 86.457031 185.96875 86.457031 182.484375 88.777344 L 105.730469 132.902344 C 101.085938 135.222656 99.921875 138.703125 99.921875 143.363281 L 99.921875 231.617188 C 99.921875 236.277344 101.085938 239.757812 105.730469 242.078125 L 182.484375 286.203125 C 185.96875 288.523438 190.617188 288.523438 194.121094 286.203125 L 270.875 242.078125 C 274.359375 239.757812 276.683594 236.277344 276.683594 231.617188 L 276.683594 143.363281 C 276.683594 138.703125 274.359375 135.222656 270.875 132.902344 Z M 199.929688 78.316406 L 276.683594 122.441406 C 284.816406 127.101562 288.320312 134.0625 288.320312 143.363281 L 288.320312 231.617188 C 288.320312 240.917969 284.816406 247.878906 276.683594 252.519531 L 199.929688 296.664062 C 192.960938 301.304688 183.644531 301.304688 175.515625 296.664062 L 98.761719 252.519531 C 91.769531 247.878906 87.125 240.917969 87.125 231.617188 L 87.125 143.363281 C 87.125 134.0625 91.769531 127.101562 98.761719 122.441406 L 175.515625 78.316406 C 183.644531 73.675781 192.960938 73.675781 199.929688 78.316406 " fill-opacity="1" fill-rule="nonzero"/></g><g fill="#1e3050" fill-opacity="1"><g transform="translate(135.196284, 244.874984)"><g><path d="M 42.617188 1.84375 L 47.816406 1.84375 L 52.515625 1.34375 L 56.207031 1.34375 L 62.917969 0.335938 L 65.9375 -1.511719 L 75.335938 -5.871094 L 77.683594 -7.886719 L 80.535156 -9.898438 L 87.246094 -17.28125 L 90.097656 -22.984375 L 92.28125 -30.199219 L 93.121094 -38.421875 L 92.785156 -82.882812 L 93.285156 -85.90625 L 92.953125 -112.582031 L 91.273438 -115.9375 L 86.074219 -117.28125 L 77.683594 -117.449219 L 74.160156 -117.113281 L 60.738281 -117.617188 L 57.046875 -117.113281 L 52.179688 -117.949219 L 47.148438 -117.113281 L 43.625 -117.113281 L 40.101562 -115.601562 L 38.253906 -112.75 L 38.589844 -109.226562 L 38.421875 -106.039062 L 38.589844 -102.011719 L 38.253906 -99.328125 L 38.589844 -95.972656 L 39.765625 -92.449219 L 43.625 -90.769531 L 46.8125 -90.265625 L 51.675781 -90.265625 L 56.878906 -90.601562 L 60.402344 -88.757812 L 62.246094 -85.570312 L 61.578125 -34.058594 L 60.234375 -30.703125 L 58.386719 -28.355469 L 52.515625 -25.503906 L 47.648438 -25 L 42.953125 -26.007812 L 39.597656 -27.179688 L 36.578125 -28.859375 L 34.226562 -31.039062 L 33.054688 -33.890625 L 32.046875 -39.09375 L 31.878906 -46.644531 L 32.214844 -49.664062 L 30.367188 -52.683594 L 26.675781 -54.027344 L 16.105469 -54.363281 L 12.75 -54.027344 L 9.058594 -54.027344 L 5.367188 -52.515625 L 3.691406 -49.328125 L 3.523438 -43.457031 L 4.027344 -38.589844 L 3.859375 -33.554688 L 4.195312 -30.199219 L 5.203125 -26.84375 L 7.550781 -20.804688 L 12.917969 -12.082031 L 15.605469 -9.5625 L 23.320312 -3.691406 L 29.53125 -1.34375 L 32.550781 -0.671875 L 36.242188 0.839844 L 39.261719 0.839844 Z M 42.617188 1.84375 "/></g></g></g></svg>